<svg width="128" height="128" viewBox="0 0 128 128" fill="none" xmlns="http://www.w3.org/2000/svg">
<rect width="128" height="128" fill="url(#paint0_linear_38_191)"/>
<mask id="path-1-inside-1_38_191" fill="white">
<path fill-rule="evenodd" clip-rule="evenodd" d="M61.2278 17.9966C59.9297 18.2963 58.6597 18.786 57.6675 19.3698C56.6197 19.9859 54.7493 21.8826 53.9212 23.1683C52.471 25.4203 52.0805 27.2741 52.0723 31.9459L52.0664 35.2516L49.5869 35.3554C46.6889 35.4765 45.1445 35.747 43.109 36.4892C40.3054 37.5114 37.7034 39.6868 36.6188 41.9153C36.1616 42.8548 36.0213 43.5383 35.429 47.7045C34.2243 56.1806 30.6673 85.1328 29.8798 92.8734C29.537 96.2437 29.4442 99.177 29.6698 99.5161C30.1795 100.282 32.1634 100.421 42.6682 100.424L51.6768 100.427L53.6966 98.3604C54.8076 97.2236 57.5543 94.3388 59.8006 91.9493C62.0468 89.5599 63.9396 87.605 64.0068 87.605C64.074 87.605 65.9287 89.5221 68.1281 91.865C70.3275 94.2079 73.068 97.0991 74.2181 98.2897L76.3093 100.454L86.4189 100.38C96.7782 100.304 97.7907 100.24 98.2516 99.629C98.5607 99.2192 98.5118 96.6463 98.1242 92.9284C97.1147 83.2439 93.4749 53.7662 92.311 45.8486C91.7983 42.361 91.4 41.372 89.8505 39.7397C86.9984 36.7351 83.0467 35.3178 77.4914 35.3072L75.9365 35.3041L75.9306 31.9721C75.9223 27.2514 75.5187 25.3483 74.0613 23.1579C72.5709 20.9179 70.3974 19.2262 67.8617 18.3327C66.8162 17.9642 66.2424 17.8799 64.4217 17.8272C62.9516 17.7846 61.9062 17.8401 61.2278 17.9966ZM65.4546 21.3177C68.2903 22.189 70.5191 23.9048 71.2048 25.7441C71.7412 27.1827 71.895 28.6011 71.8987 32.1408L71.9021 35.3041H64.0014H56.1008L56.1021 31.8877C56.1035 28.158 56.2674 26.6828 56.7957 25.6432C57.6177 24.0261 59.9766 22.188 62.2742 21.3741C63.6763 20.8774 64.0029 20.8717 65.4546 21.3177ZM51.9644 39.2827C52.0205 39.4295 52.0698 39.9419 52.0738 40.4215C52.0852 41.7833 52.3302 42.7668 52.7415 43.101C53.1748 43.4533 54.3008 43.4983 54.9241 43.1884C55.6306 42.8371 56.1008 41.661 56.1008 40.2454V39.0158H64.0014H71.9021L71.9149 40.239C71.931 41.7842 72.2011 42.5419 72.9071 43.0227C73.5957 43.4916 74.7307 43.5324 75.2538 43.1071C75.6705 42.7681 75.9257 41.8358 75.9348 40.6186C75.9381 40.1546 75.9889 39.5953 76.0476 39.3758L76.154 38.9768L78.7768 39.0607C81.5777 39.1504 82.7534 39.3807 84.2431 40.1317C86.6622 41.3513 87.938 43.3043 88.4739 46.6079C89.2775 51.5619 94.2592 93.3523 94.2592 95.1382C94.2592 95.7101 94.1807 95.9051 93.881 96.0769C93.5919 96.2427 91.6582 96.3067 85.6655 96.3488L77.8282 96.404L73.8214 92.0467C68.5453 86.3093 65.2563 82.9544 64.6673 82.7096C63.4675 82.2109 62.401 83.1402 55.1598 90.9946L50.4014 96.1558L47.7459 96.2663C46.2854 96.3271 42.5374 96.3772 39.417 96.3775L33.7437 96.378L33.7464 95.4079C33.7549 92.3051 39.5318 45.5563 40.1444 43.6328C40.4927 42.539 43.4104 40.02 44.8923 39.5334C45.7582 39.2491 47.6373 39.06 49.8211 39.037C51.5404 39.0192 51.8785 39.058 51.9644 39.2827ZM61.8841 58.5606C59.9161 60.3441 57.5273 62.7842 53.9298 66.6855C51.3612 69.4708 49.8507 71.3198 49.3679 72.2697C49.0648 72.8659 49.0568 72.9764 49.277 73.5055C49.4634 73.9533 49.6703 74.1321 50.179 74.2851C51.5945 74.7108 52.3053 74.1252 59.1889 66.8599C61.7861 64.1189 63.9545 61.8763 64.008 61.8763C64.0614 61.8763 66.2642 64.1568 68.903 66.944C74.1707 72.5078 75.311 73.5998 76.4081 74.133C77.0501 74.4449 77.2256 74.465 77.7993 74.2924C78.5502 74.0667 79.0532 73.3196 78.8661 72.7077C78.6734 72.0769 77.3406 70.3121 75.5587 68.3286C70.49 62.6861 64.6402 56.8993 64.0051 56.8993C63.8466 56.8993 62.8921 57.6469 61.8841 58.5606ZM62.8819 70.0418C61.8538 70.8729 57.2291 75.581 54.8229 78.2458C51.1634 82.299 49.0406 84.9732 49.0406 85.5308C49.0406 86.3052 50.2395 87.2676 51.2044 87.2676C51.6376 87.2676 52.2888 86.6595 56.1275 82.6701C61.7706 76.8057 63.7831 74.7828 63.9747 74.7828C64.0588 74.7828 66.8324 77.555 70.1382 80.9432C73.5308 84.4204 76.3221 87.1473 76.5468 87.2038C76.7659 87.259 77.1463 87.2536 77.392 87.1915C77.993 87.0401 78.9622 86.0424 78.9622 85.5752C78.9622 84.9196 77.0059 82.4398 73.2469 78.3314C68.5473 73.1947 64.6009 69.384 63.9809 69.384C63.8239 69.384 63.3294 69.68 62.8819 70.0418ZM63.8064 93.1762C63.4681 93.3556 63.0253 93.7129 62.8224 93.9702C62.4966 94.3832 62.4664 94.5645 62.563 95.5235C62.7039 96.9213 63.5926 101.442 63.9418 102.536C64.3141 103.703 64.4546 103.797 64.754 103.077C65.0657 102.329 66.355 95.9566 66.3541 95.1699C66.3533 94.4485 65.8364 93.5992 65.1376 93.1717C64.484 92.7716 64.5699 92.7713 63.8064 93.1762ZM57.5237 99.5755C56.8332 99.8564 56.7177 100.186 56.8256 101.571C57.0426 104.357 58.3193 110.286 58.6766 110.166C58.7764 110.133 58.9568 109.731 59.0771 109.273C59.3969 108.058 60.2582 102.913 60.3915 101.423C60.5036 100.167 60.4967 100.134 60.0457 99.7783C59.5609 99.3955 58.2292 99.2883 57.5237 99.5755ZM67.9792 99.7599C67.5118 100.13 67.5044 100.162 67.6162 101.337C67.7576 102.823 68.6386 108.147 68.9296 109.273C69.0479 109.731 69.2264 110.133 69.3263 110.166C69.6911 110.288 70.9792 104.265 71.1747 101.524C71.2631 100.285 71.2409 100.147 70.9046 99.8441C70.6486 99.6134 70.2248 99.4941 69.4971 99.4481C68.6134 99.3923 68.3839 99.4393 67.9792 99.7599Z"/>
</mask>
<path fill-rule="evenodd" clip-rule="evenodd" d="M61.2278 17.9966C59.9297 18.2963 58.6597 18.786 57.6675 19.3698C56.6197 19.9859 54.7493 21.8826 53.9212 23.1683C52.471 25.4203 52.0805 27.2741 52.0723 31.9459L52.0664 35.2516L49.5869 35.3554C46.6889 35.4765 45.1445 35.747 43.109 36.4892C40.3054 37.5114 37.7034 39.6868 36.6188 41.9153C36.1616 42.8548 36.0213 43.5383 35.429 47.7045C34.2243 56.1806 30.6673 85.1328 29.8798 92.8734C29.537 96.2437 29.4442 99.177 29.6698 99.5161C30.1795 100.282 32.1634 100.421 42.6682 100.424L51.6768 100.427L53.6966 98.3604C54.8076 97.2236 57.5543 94.3388 59.8006 91.9493C62.0468 89.5599 63.9396 87.605 64.0068 87.605C64.074 87.605 65.9287 89.5221 68.1281 91.865C70.3275 94.2079 73.068 97.0991 74.2181 98.2897L76.3093 100.454L86.4189 100.38C96.7782 100.304 97.7907 100.24 98.2516 99.629C98.5607 99.2192 98.5118 96.6463 98.1242 92.9284C97.1147 83.2439 93.4749 53.7662 92.311 45.8486C91.7983 42.361 91.4 41.372 89.8505 39.7397C86.9984 36.7351 83.0467 35.3178 77.4914 35.3072L75.9365 35.3041L75.9306 31.9721C75.9223 27.2514 75.5187 25.3483 74.0613 23.1579C72.5709 20.9179 70.3974 19.2262 67.8617 18.3327C66.8162 17.9642 66.2424 17.8799 64.4217 17.8272C62.9516 17.7846 61.9062 17.8401 61.2278 17.9966ZM65.4546 21.3177C68.2903 22.189 70.5191 23.9048 71.2048 25.7441C71.7412 27.1827 71.895 28.6011 71.8987 32.1408L71.9021 35.3041H64.0014H56.1008L56.1021 31.8877C56.1035 28.158 56.2674 26.6828 56.7957 25.6432C57.6177 24.0261 59.9766 22.188 62.2742 21.3741C63.6763 20.8774 64.0029 20.8717 65.4546 21.3177ZM51.9644 39.2827C52.0205 39.4295 52.0698 39.9419 52.0738 40.4215C52.0852 41.7833 52.3302 42.7668 52.7415 43.101C53.1748 43.4533 54.3008 43.4983 54.9241 43.1884C55.6306 42.8371 56.1008 41.661 56.1008 40.2454V39.0158H64.0014H71.9021L71.9149 40.239C71.931 41.7842 72.2011 42.5419 72.9071 43.0227C73.5957 43.4916 74.7307 43.5324 75.2538 43.1071C75.6705 42.7681 75.9257 41.8358 75.9348 40.6186C75.9381 40.1546 75.9889 39.5953 76.0476 39.3758L76.154 38.9768L78.7768 39.0607C81.5777 39.1504 82.7534 39.3807 84.2431 40.1317C86.6622 41.3513 87.938 43.3043 88.4739 46.6079C89.2775 51.5619 94.2592 93.3523 94.2592 95.1382C94.2592 95.7101 94.1807 95.9051 93.881 96.0769C93.5919 96.2427 91.6582 96.3067 85.6655 96.3488L77.8282 96.404L73.8214 92.0467C68.5453 86.3093 65.2563 82.9544 64.6673 82.7096C63.4675 82.2109 62.401 83.1402 55.1598 90.9946L50.4014 96.1558L47.7459 96.2663C46.2854 96.3271 42.5374 96.3772 39.417 96.3775L33.7437 96.378L33.7464 95.4079C33.7549 92.3051 39.5318 45.5563 40.1444 43.6328C40.4927 42.539 43.4104 40.02 44.8923 39.5334C45.7582 39.2491 47.6373 39.06 49.8211 39.037C51.5404 39.0192 51.8785 39.058 51.9644 39.2827ZM61.8841 58.5606C59.9161 60.3441 57.5273 62.7842 53.9298 66.6855C51.3612 69.4708 49.8507 71.3198 49.3679 72.2697C49.0648 72.8659 49.0568 72.9764 49.277 73.5055C49.4634 73.9533 49.6703 74.1321 50.179 74.2851C51.5945 74.7108 52.3053 74.1252 59.1889 66.8599C61.7861 64.1189 63.9545 61.8763 64.008 61.8763C64.0614 61.8763 66.2642 64.1568 68.903 66.944C74.1707 72.5078 75.311 73.5998 76.4081 74.133C77.0501 74.4449 77.2256 74.465 77.7993 74.2924C78.5502 74.0667 79.0532 73.3196 78.8661 72.7077C78.6734 72.0769 77.3406 70.3121 75.5587 68.3286C70.49 62.6861 64.6402 56.8993 64.0051 56.8993C63.8466 56.8993 62.8921 57.6469 61.8841 58.5606ZM62.8819 70.0418C61.8538 70.8729 57.2291 75.581 54.8229 78.2458C51.1634 82.299 49.0406 84.9732 49.0406 85.5308C49.0406 86.3052 50.2395 87.2676 51.2044 87.2676C51.6376 87.2676 52.2888 86.6595 56.1275 82.6701C61.7706 76.8057 63.7831 74.7828 63.9747 74.7828C64.0588 74.7828 66.8324 77.555 70.1382 80.9432C73.5308 84.4204 76.3221 87.1473 76.5468 87.2038C76.7659 87.259 77.1463 87.2536 77.392 87.1915C77.993 87.0401 78.9622 86.0424 78.9622 85.5752C78.9622 84.9196 77.0059 82.4398 73.2469 78.3314C68.5473 73.1947 64.6009 69.384 63.9809 69.384C63.8239 69.384 63.3294 69.68 62.8819 70.0418ZM63.8064 93.1762C63.4681 93.3556 63.0253 93.7129 62.8224 93.9702C62.4966 94.3832 62.4664 94.5645 62.563 95.5235C62.7039 96.9213 63.5926 101.442 63.9418 102.536C64.3141 103.703 64.4546 103.797 64.754 103.077C65.0657 102.329 66.355 95.9566 66.3541 95.1699C66.3533 94.4485 65.8364 93.5992 65.1376 93.1717C64.484 92.7716 64.5699 92.7713 63.8064 93.1762ZM57.5237 99.5755C56.8332 99.8564 56.7177 100.186 56.8256 101.571C57.0426 104.357 58.3193 110.286 58.6766 110.166C58.7764 110.133 58.9568 109.731 59.0771 109.273C59.3969 108.058 60.2582 102.913 60.3915 101.423C60.5036 100.167 60.4967 100.134 60.0457 99.7783C59.5609 99.3955 58.2292 99.2883 57.5237 99.5755ZM67.9792 99.7599C67.5118 100.13 67.5044 100.162 67.6162 101.337C67.7576 102.823 68.6386 108.147 68.9296 109.273C69.0479 109.731 69.2264 110.133 69.3263 110.166C69.6911 110.288 70.9792 104.265 71.1747 101.524C71.2631 100.285 71.2409 100.147 70.9046 99.8441C70.6486 99.6134 70.2248 99.4941 69.4971 99.4481C68.6134 99.3923 68.3839 99.4393 67.9792 99.7599Z" fill="white" stroke="white" stroke-width="157.593" mask="url(#path-1-inside-1_38_191)"/>
<defs>
<linearGradient id="paint0_linear_38_191" x1="8.47761" y1="62.1562" x2="142.313" y2="55.8709" gradientUnits="userSpaceOnUse">
<stop stop-color="#0E4BF5"/>
<stop offset="1" stop-color="#196CF8"/>
</linearGradient>
</defs>
</svg>
